<svg width="32" height="32" viewBox="0 0 32 32" fill="none" xmlns="http://www.w3.org/2000/svg">
<g clip-path="url(#clip0_39_183)">
<path d="M16 32C24.8366 32 32 24.8366 32 16C32 7.16344 24.8366 0 16 0C7.16344 0 0 7.16344 0 16C0 24.8366 7.16344 32 16 32Z" fill="url(#paint0_linear_39_183)"/>
<path d="M20.8732 18.1176C20.7861 18.1176 20.7094 18.1913 20.6295 18.3524C19.7282 20.1836 18.1715 21.4793 16.3701 21.4793C14.2871 21.4793 12.9972 19.5953 12.9972 16.9925C12.9972 12.5838 15.4488 10.0347 17.6022 10.0347C18.6085 10.0347 19.223 10.6683 19.223 11.6765C19.223 12.8732 18.5445 13.5068 18.5445 13.9288C18.5445 14.1183 18.6621 14.233 18.8953 14.233C19.8323 14.233 20.932 13.1542 20.932 11.6302C20.932 10.1525 19.6484 9.06641 17.4951 9.06641C13.9362 9.06641 10.7734 12.3722 10.7734 16.9462C10.7734 20.4868 12.7913 22.8264 15.9047 22.8264C19.2093 22.8264 21.1201 19.5321 21.1201 18.4629C21.1201 18.2261 20.9993 18.1176 20.8732 18.1176Z" fill="white"/>
</g>
<defs>
<linearGradient id="paint0_linear_39_183" x1="16" y1="0" x2="16" y2="32" gradientUnits="userSpaceOnUse">
<stop stop-color="#59AFCA"/>
<stop offset="1" stop-color="#6157E3"/>
</linearGradient>
<clipPath id="clip0_39_183">
<rect width="32" height="32" fill="white"/>
</clipPath>
</defs>
</svg>
