<svg width="32" height="32" viewBox="0 0 32 32" fill="none" xmlns="http://www.w3.org/2000/svg">
<path d="M28.94 6.68C28.9161 6.61713 28.886 6.55682 28.85 6.5C28.8357 6.4623 28.819 6.42556 28.8 6.39C28.7069 6.29759 28.6028 6.21699 28.49 6.15L28.32 6.09H1.93998C1.87018 6.08263 1.79979 6.08263 1.72998 6.09L1.55998 6.15C1.50708 6.17875 1.45687 6.21222 1.40998 6.25C1.3558 6.28825 1.30555 6.3318 1.25998 6.38C1.24095 6.41554 1.22425 6.45229 1.20998 6.49C1.10423 6.59731 1.03136 6.73263 0.999984 6.88C0.997401 6.91996 0.997401 6.96004 0.999984 7V25C0.999984 25.2652 1.10534 25.5196 1.29288 25.7071C1.48041 25.8946 1.73477 26 1.99998 26H28C28.2652 26 28.5196 25.8946 28.7071 25.7071C28.8946 25.5196 29 25.2652 29 25V7C29.0026 6.96004 29.0026 6.91996 29 6.88C28.987 6.81142 28.9669 6.74439 28.94 6.68ZM25.06 8L15 15.74L4.93998 8H25.06ZM27 24H2.99998V9L14.39 17.76C14.5648 17.8946 14.7793 17.9676 15 17.9676C15.2207 17.9676 15.4351 17.8946 15.61 17.76L27 9V24Z" fill="black"/>
</svg>
