<svg width="30" height="30" viewBox="0 0 30 30" fill="none" xmlns="http://www.w3.org/2000/svg">
<g clip-path="url(#clip0_326_65)">
<path d="M29.9842 15.2807C29.9842 14.0516 29.8821 13.1547 29.6613 12.2245H15.2988V17.772H23.7292C23.5593 19.1507 22.6415 21.2268 20.6018 22.622L20.5732 22.8077L25.1144 26.2454L25.429 26.2761C28.3184 23.6684 29.9842 19.8316 29.9842 15.2807Z" fill="#4285F4"/>
<path d="M15.2989 29.897C19.4291 29.897 22.8964 28.5681 25.4291 26.2761L20.6019 22.622C19.3102 23.5023 17.5764 24.1168 15.2989 24.1168C11.2536 24.1168 7.82028 21.5092 6.59638 17.905L6.41699 17.9199L1.69505 21.4909L1.6333 21.6586C4.14882 26.5418 9.31591 29.897 15.2989 29.897Z" fill="#34A853"/>
<path d="M6.59621 17.905C6.27328 16.9748 6.08638 15.9782 6.08638 14.9485C6.08638 13.9186 6.27328 12.9221 6.57922 11.992L6.57067 11.7939L1.78956 8.1655L1.63313 8.23821C0.596364 10.2646 0.00146484 12.5401 0.00146484 14.9485C0.00146484 17.3568 0.596364 19.6323 1.63313 21.6586L6.59621 17.905Z" fill="#FBBC05"/>
<path d="M15.2989 5.78007C18.1713 5.78007 20.1089 6.99255 21.2138 8.00579L25.531 3.88663C22.8795 1.47827 19.4291 3.05176e-05 15.2989 3.05176e-05C9.31591 3.05176e-05 4.14882 3.35511 1.6333 8.23824L6.57939 11.992C7.82028 8.38778 11.2536 5.78007 15.2989 5.78007Z" fill="#EB4335"/>
</g>
<defs>
<clipPath id="clip0_326_65">
<rect width="30" height="30" fill="white"/>
</clipPath>
</defs>
</svg>
