<svg width="163" height="33" viewBox="0 0 163 33" fill="none" xmlns="http://www.w3.org/2000/svg">
<rect width="33" height="33" rx="5" fill="url(#paint0_linear_17_478)"/>
<path d="M9.45 24.925C9.26667 24.925 9.11667 24.8667 9 24.75C8.86667 24.65 8.8 24.5083 8.8 24.325C8.8 24.0917 8.91667 23.8167 9.15 23.5C9.36667 23.1833 9.73333 22.8333 10.25 22.45C10.3333 22.2333 10.3917 22.0333 10.425 21.85C10.475 21.6667 10.5167 21.4667 10.55 21.25C10.6667 20.5167 10.875 19.775 11.175 19.025C11.475 18.2583 11.775 17.5417 12.075 16.875C11.7583 16.8083 11.4417 16.5583 11.125 16.125C10.825 15.6917 10.675 15.2333 10.675 14.75C10.675 14.6333 10.7 14.4417 10.75 14.175C10.8 13.8917 10.8833 13.75 11 13.75C11.15 13.75 11.225 13.875 11.225 14.125C11.225 14.375 11.225 14.55 11.225 14.65C11.225 15 11.325 15.35 11.525 15.7C11.725 16.05 11.9667 16.3 12.25 16.45C12.5333 15.8333 12.8917 15.1083 13.325 14.275C13.7583 13.425 14.25 12.5333 14.8 11.6C15.35 10.65 15.95 9.725 16.6 8.825C17.25 7.925 17.9333 7.10833 18.65 6.375C19.3833 5.64167 20.1417 5.05833 20.925 4.625C21.7083 4.19167 22.5083 3.975 23.325 3.975C23.9917 3.975 24.475 4.15 24.775 4.5C25.075 4.83333 25.225 5.29167 25.225 5.875C25.225 6.49167 25.075 7.2 24.775 8C24.475 8.8 24.05 9.63333 23.5 10.5C22.9667 11.35 22.3417 12.1833 21.625 13C20.9083 13.8 20.125 14.5333 19.275 15.2C18.425 15.85 17.5417 16.3667 16.625 16.75C15.7083 17.1333 14.7917 17.325 13.875 17.325C13.6917 17.325 13.5083 17.3167 13.325 17.3C13.1417 17.2667 12.9667 17.2167 12.8 17.15C12.4667 17.9333 12.1583 18.7167 11.875 19.5C11.5917 20.2833 11.3667 21.1 11.2 21.95C12.4833 21.1667 13.875 20.6 15.375 20.25C16.875 19.9 18.375 19.725 19.875 19.725C20.275 19.725 20.7333 19.8 21.25 19.95C21.7667 20.0833 22.2083 20.3 22.575 20.6C22.9583 20.9 23.15 21.3083 23.15 21.825C23.15 22.2417 23.1083 22.45 23.025 22.45C22.9417 22.45 22.8417 22.3 22.725 22C22.4917 21.4 22.125 21.025 21.625 20.875C21.125 20.7083 20.575 20.625 19.975 20.625C18.9583 20.625 18.0833 20.675 17.35 20.775C16.6333 20.8583 15.9667 20.9917 15.35 21.175C14.75 21.3583 14.125 21.5833 13.475 21.85C12.825 22.1167 12.0583 22.425 11.175 22.775C11.0417 23.5417 10.7917 24.0917 10.425 24.425C10.075 24.7583 9.75 24.925 9.45 24.925ZM13.75 16.875C14.6333 16.875 15.5083 16.6833 16.375 16.3C17.2583 15.9 18.1 15.375 18.9 14.725C19.7167 14.0583 20.4667 13.325 21.15 12.525C21.8333 11.725 22.425 10.9167 22.925 10.1C23.4417 9.26667 23.8417 8.48333 24.125 7.75C24.4083 7 24.55 6.36667 24.55 5.85C24.55 5.46667 24.4583 5.16667 24.275 4.95C24.1083 4.73333 23.8417 4.625 23.475 4.625C22.8583 4.625 22.2083 4.84167 21.525 5.275C20.8583 5.70833 20.175 6.29167 19.475 7.025C18.775 7.75833 18.0917 8.56667 17.425 9.45C16.775 10.3333 16.1583 11.2333 15.575 12.15C15.0083 13.05 14.5 13.9083 14.05 14.725C13.6 15.525 13.25 16.2 13 16.75C13.0833 16.8 13.2083 16.8333 13.375 16.85C13.5417 16.8667 13.6667 16.875 13.75 16.875Z" fill="white"/>
<path d="M44.517 25V7.54545H48.2074V21.9574H55.6903V25H44.517ZM59.3342 25V7.54545H71.0956V10.5881H63.0246V14.7472H70.4905V17.7898H63.0246V21.9574H71.1297V25H59.3342ZM84.6983 12.5653C84.6301 11.8778 84.3375 11.3437 83.8205 10.9631C83.3034 10.5824 82.6017 10.392 81.7153 10.392C81.1131 10.392 80.6045 10.4773 80.1898 10.6477C79.775 10.8125 79.4568 11.0426 79.2352 11.3381C79.0193 11.6335 78.9114 11.9688 78.9114 12.3438C78.9 12.6562 78.9653 12.929 79.1074 13.1619C79.2551 13.3949 79.4568 13.5966 79.7125 13.767C79.9682 13.9318 80.2636 14.0767 80.5989 14.2017C80.9341 14.321 81.292 14.4233 81.6727 14.5085L83.2409 14.8835C84.0023 15.054 84.7011 15.2812 85.3375 15.5653C85.9739 15.8494 86.525 16.1989 86.9909 16.6136C87.4568 17.0284 87.8176 17.517 88.0733 18.0795C88.3347 18.642 88.4682 19.2869 88.4739 20.0142C88.4682 21.0824 88.1955 22.0085 87.6557 22.7926C87.1216 23.571 86.3489 24.1761 85.3375 24.608C84.3318 25.0341 83.1188 25.2472 81.6983 25.2472C80.2892 25.2472 79.0619 25.0312 78.0165 24.5994C76.9767 24.1676 76.1642 23.5284 75.579 22.6818C74.9994 21.8295 74.6955 20.7756 74.667 19.5199H78.2381C78.2778 20.1051 78.4455 20.5937 78.7409 20.9858C79.042 21.3722 79.4426 21.6648 79.9426 21.8636C80.4483 22.0568 81.0193 22.1534 81.6557 22.1534C82.2807 22.1534 82.8233 22.0625 83.2835 21.8807C83.7494 21.6989 84.1102 21.446 84.3659 21.1222C84.6216 20.7983 84.7494 20.4261 84.7494 20.0057C84.7494 19.6136 84.633 19.2841 84.4 19.017C84.1727 18.75 83.8375 18.5227 83.3943 18.3352C82.9568 18.1477 82.4199 17.9773 81.7835 17.8239L79.883 17.3466C78.4114 16.9886 77.2494 16.429 76.3972 15.6676C75.5449 14.9062 75.1216 13.8807 75.1273 12.5909C75.1216 11.5341 75.4028 10.6108 75.971 9.82102C76.5449 9.03125 77.3318 8.41477 78.3318 7.97159C79.3318 7.52841 80.4682 7.30682 81.7409 7.30682C83.0364 7.30682 84.167 7.52841 85.133 7.97159C86.1045 8.41477 86.8602 9.03125 87.4 9.82102C87.9398 10.6108 88.2182 11.5256 88.2352 12.5653H84.6983ZM101.625 12.5653C101.557 11.8778 101.264 11.3437 100.747 10.9631C100.23 10.5824 99.5283 10.392 98.6419 10.392C98.0396 10.392 97.5311 10.4773 97.1163 10.6477C96.7016 10.8125 96.3834 11.0426 96.1618 11.3381C95.9459 11.6335 95.8379 11.9688 95.8379 12.3438C95.8266 12.6562 95.8919 12.929 96.0339 13.1619C96.1817 13.3949 96.3834 13.5966 96.6391 13.767C96.8947 13.9318 97.1902 14.0767 97.5254 14.2017C97.8607 14.321 98.2186 14.4233 98.5993 14.5085L100.167 14.8835C100.929 15.054 101.628 15.2812 102.264 15.5653C102.9 15.8494 103.452 16.1989 103.917 16.6136C104.383 17.0284 104.744 17.517 105 18.0795C105.261 18.642 105.395 19.2869 105.4 20.0142C105.395 21.0824 105.122 22.0085 104.582 22.7926C104.048 23.571 103.275 24.1761 102.264 24.608C101.258 25.0341 100.045 25.2472 98.6249 25.2472C97.2158 25.2472 95.9885 25.0312 94.943 24.5994C93.9033 24.1676 93.0908 23.5284 92.5055 22.6818C91.926 21.8295 91.622 20.7756 91.5936 19.5199H95.1646C95.2044 20.1051 95.372 20.5937 95.6675 20.9858C95.9686 21.3722 96.3692 21.6648 96.8692 21.8636C97.3749 22.0568 97.9459 22.1534 98.5822 22.1534C99.2072 22.1534 99.7499 22.0625 100.21 21.8807C100.676 21.6989 101.037 21.446 101.292 21.1222C101.548 20.7983 101.676 20.4261 101.676 20.0057C101.676 19.6136 101.56 19.2841 101.327 19.017C101.099 18.75 100.764 18.5227 100.321 18.3352C99.8834 18.1477 99.3464 17.9773 98.7101 17.8239L96.8095 17.3466C95.3379 16.9886 94.176 16.429 93.3237 15.6676C92.4714 14.9062 92.0482 13.8807 92.0538 12.5909C92.0482 11.5341 92.3294 10.6108 92.8976 9.82102C93.4714 9.03125 94.2584 8.41477 95.2584 7.97159C96.2584 7.52841 97.3947 7.30682 98.6675 7.30682C99.9629 7.30682 101.094 7.52841 102.06 7.97159C103.031 8.41477 103.787 9.03125 104.327 9.82102C104.866 10.6108 105.145 11.5256 105.162 12.5653H101.625ZM125.122 16.2727C125.122 18.1761 124.762 19.7955 124.04 21.1307C123.324 22.4659 122.347 23.4858 121.108 24.1903C119.875 24.8892 118.489 25.2386 116.949 25.2386C115.398 25.2386 114.006 24.8864 112.773 24.1818C111.54 23.4773 110.566 22.4574 109.85 21.1222C109.134 19.7869 108.776 18.1705 108.776 16.2727C108.776 14.3693 109.134 12.75 109.85 11.4148C110.566 10.0795 111.54 9.0625 112.773 8.36364C114.006 7.65909 115.398 7.30682 116.949 7.30682C118.489 7.30682 119.875 7.65909 121.108 8.36364C122.347 9.0625 123.324 10.0795 124.04 11.4148C124.762 12.75 125.122 14.3693 125.122 16.2727ZM121.381 16.2727C121.381 15.0398 121.196 14 120.827 13.1534C120.463 12.3068 119.949 11.6648 119.284 11.2273C118.62 10.7898 117.841 10.571 116.949 10.571C116.057 10.571 115.279 10.7898 114.614 11.2273C113.949 11.6648 113.432 12.3068 113.063 13.1534C112.699 14 112.517 15.0398 112.517 16.2727C112.517 17.5057 112.699 18.5455 113.063 19.392C113.432 20.2386 113.949 20.8807 114.614 21.3182C115.279 21.7557 116.057 21.9744 116.949 21.9744C117.841 21.9744 118.62 21.7557 119.284 21.3182C119.949 20.8807 120.463 20.2386 120.827 19.392C121.196 18.5455 121.381 17.5057 121.381 16.2727ZM143.656 7.54545V25H140.468L132.874 14.0142H132.746V25H129.056V7.54545H132.295L139.829 18.5227H139.982V7.54545H143.656ZM157.373 12.5653C157.305 11.8778 157.012 11.3437 156.495 10.9631C155.978 10.5824 155.277 10.392 154.39 10.392C153.788 10.392 153.28 10.4773 152.865 10.6477C152.45 10.8125 152.132 11.0426 151.91 11.3381C151.694 11.6335 151.586 11.9688 151.586 12.3438C151.575 12.6562 151.64 12.929 151.782 13.1619C151.93 13.3949 152.132 13.5966 152.387 13.767C152.643 13.9318 152.939 14.0767 153.274 14.2017C153.609 14.321 153.967 14.4233 154.348 14.5085L155.916 14.8835C156.677 15.054 157.376 15.2812 158.012 15.5653C158.649 15.8494 159.2 16.1989 159.666 16.6136C160.132 17.0284 160.493 17.517 160.748 18.0795C161.01 18.642 161.143 19.2869 161.149 20.0142C161.143 21.0824 160.87 22.0085 160.331 22.7926C159.797 23.571 159.024 24.1761 158.012 24.608C157.007 25.0341 155.794 25.2472 154.373 25.2472C152.964 25.2472 151.737 25.0312 150.691 24.5994C149.652 24.1676 148.839 23.5284 148.254 22.6818C147.674 21.8295 147.37 20.7756 147.342 19.5199H150.913C150.953 20.1051 151.12 20.5937 151.416 20.9858C151.717 21.3722 152.118 21.6648 152.618 21.8636C153.123 22.0568 153.694 22.1534 154.331 22.1534C154.956 22.1534 155.498 22.0625 155.959 21.8807C156.424 21.6989 156.785 21.446 157.041 21.1222C157.297 20.7983 157.424 20.4261 157.424 20.0057C157.424 19.6136 157.308 19.2841 157.075 19.017C156.848 18.75 156.512 18.5227 156.069 18.3352C155.632 18.1477 155.095 17.9773 154.459 17.8239L152.558 17.3466C151.086 16.9886 149.924 16.429 149.072 15.6676C148.22 14.9062 147.797 13.8807 147.802 12.5909C147.797 11.5341 148.078 10.6108 148.646 9.82102C149.22 9.03125 150.007 8.41477 151.007 7.97159C152.007 7.52841 153.143 7.30682 154.416 7.30682C155.711 7.30682 156.842 7.52841 157.808 7.97159C158.78 8.41477 159.535 9.03125 160.075 9.82102C160.615 10.6108 160.893 11.5256 160.91 12.5653H157.373Z" fill="black"/>
<defs>
<linearGradient id="paint0_linear_17_478" x1="1.155" y1="1.35882" x2="36.0202" y2="25.8574" gradientUnits="userSpaceOnUse">
<stop stop-color="#008DDA"/>
<stop offset="1" stop-color="#41C9E2"/>
</linearGradient>
</defs>
</svg>
