<svg width="32" height="32" viewBox="0 0 32 32" fill="none" xmlns="http://www.w3.org/2000/svg">
<g clip-path="url(#clip0_39_189)">
<path d="M16 32C24.8366 32 32 24.8366 32 16C32 7.16344 24.8366 0 16 0C7.16344 0 0 7.16344 0 16C0 24.8366 7.16344 32 16 32Z" fill="#C33D1A"/>
<mask id="mask0_39_189" style="mask-type:luminance" maskUnits="userSpaceOnUse" x="9" y="9" width="15" height="15">
<path d="M9 9H24V24H9V9Z" fill="white"/>
</mask>
<g mask="url(#mask0_39_189)">
<path d="M19.9375 12.439C19.7649 12.439 19.625 12.5789 19.625 12.7515V14.6265C19.625 14.7991 19.7649 14.939 19.9375 14.939H21.8125C21.9851 14.939 22.125 14.7991 22.125 14.6265C22.125 13.4184 21.1456 12.439 19.9375 12.439Z" fill="white"/>
<path d="M19.9379 15.5638C19.4201 15.5638 19.0004 15.1441 19.0004 14.6263V13.0957C17.8071 13.2654 16.9773 14.3705 17.147 15.5638C17.3168 16.7572 18.4218 17.5869 19.6151 17.4172C20.5764 17.2804 21.3318 16.5251 21.4685 15.5638H19.9379Z" fill="white"/>
<path d="M17.6325 9.38149C17.5584 9.32126 17.4607 9.29823 17.3675 9.319L9.24253 11.194C9.09954 11.2269 8.99864 11.3548 9.00001 11.5015V22.1265C9.00007 22.2807 9.1126 22.4118 9.265 22.4353L17.39 23.6853C17.5606 23.7115 17.7201 23.5945 17.7464 23.4239C17.7488 23.4083 17.75 23.3924 17.75 23.3766V9.6265C17.7503 9.5312 17.707 9.44099 17.6325 9.38149Z" fill="white"/>
<path d="M23.6875 22.439H17.4375C17.2649 22.439 17.125 22.299 17.125 22.1264C17.125 21.9539 17.2649 21.8139 17.4375 21.8139H23.375V11.189H17.4375C17.2649 11.189 17.125 11.049 17.125 10.8764C17.125 10.7039 17.2649 10.564 17.4375 10.564H23.6875C23.8601 10.564 24 10.7039 24 10.8765V22.1265C24 22.2991 23.8601 22.439 23.6875 22.439Z" fill="white"/>
<path d="M21.8125 20.564H17.4375C17.2649 20.564 17.125 20.4241 17.125 20.2515C17.125 20.0789 17.2649 19.939 17.4375 19.939H21.8125C21.9851 19.939 22.125 20.0789 22.125 20.2515C22.125 20.4241 21.9851 20.564 21.8125 20.564Z" fill="white"/>
<path d="M21.8125 18.689H17.4375C17.2649 18.689 17.125 18.5491 17.125 18.3765C17.125 18.2039 17.2649 18.064 17.4375 18.064H21.8125C21.9851 18.064 22.125 18.2039 22.125 18.3765C22.125 18.5491 21.9851 18.689 21.8125 18.689Z" fill="white"/>
<path d="M11.8125 19.314C11.6399 19.314 11.5 19.1741 11.5 19.0015V14.0015C11.5 13.8289 11.6399 13.689 11.8125 13.689H13.0625C13.9255 13.689 14.625 14.3885 14.625 15.2515V15.8764C14.625 16.7394 13.9255 17.4389 13.0625 17.4389H12.125V19.0014C12.125 19.1741 11.9851 19.314 11.8125 19.314ZM12.125 16.814H13.0625C13.5803 16.814 14 16.3942 14 15.8765V15.2515C14 14.7337 13.5803 14.314 13.0625 14.314H12.125V16.814Z" fill="#C33D1A"/>
</g>
</g>
<defs>
<clipPath id="clip0_39_189">
<rect width="32" height="32" fill="white"/>
</clipPath>
</defs>
</svg>
